<?xml version="1.0" encoding="utf-8"?>
<!-- Generator: Adobe Illustrator 16.0.0, SVG Export Plug-In . SVG Version: 6.00 Build 0)  -->
<!DOCTYPE svg PUBLIC "-//W3C//DTD SVG 1.1//EN" "http://www.w3.org/Graphics/SVG/1.1/DTD/svg11.dtd">
<svg version="1.1" id="Layer_1" xmlns="http://www.w3.org/2000/svg" xmlns:xlink="http://www.w3.org/1999/xlink" x="0px" y="0px"
	 width="170px" height="40px" viewBox="0 0 170 40" enable-background="new 0 0 170 40" xml:space="preserve">
<g>
	<path fill="#EE2D46" d="M0.364,0.108h7.473v6.613H0.364V0.108z M0.794,12.419H7.46v27.15H0.794V12.419z"/>
	<path fill="#EE2D46" d="M40.093,22.903V39.57h-6.72V23.225c0-2.149-0.412-3.718-1.236-4.703s-2.096-1.479-3.817-1.479
		c-2.042,0-3.691,0.655-4.946,1.964c-1.255,1.308-1.882,3.037-1.882,5.188V39.57h-6.667V20.107c0-2.866-0.144-5.429-0.43-7.688h6.29
		l0.485,4.462c0.931-1.647,2.194-2.921,3.79-3.816c1.595-0.896,3.396-1.344,5.403-1.344C36.849,11.721,40.093,15.449,40.093,22.903"
		/>
	<path fill="#EE2D46" d="M55.791,17.473v12.149c0,3.191,1.487,4.785,4.463,4.785c0.824,0,1.72-0.143,2.688-0.43v5.323
		c-1.183,0.43-2.616,0.645-4.301,0.645c-3.083,0-5.448-0.86-7.097-2.58c-1.648-1.721-2.473-4.193-2.473-7.419V17.473h-5.215v-5.054
		h5.215V5.806l6.72-2.258v8.871h7.204v5.054H55.791z"/>
	<path fill="#EE2D46" d="M93.586,12.419v27.15h-6.613v-4.354c-0.824,1.505-2.007,2.679-3.549,3.521
		C81.884,39.579,80.127,40,78.156,40c-2.365,0-4.462-0.573-6.29-1.721c-1.828-1.147-3.245-2.778-4.247-4.894
		c-1.004-2.113-1.505-4.569-1.505-7.364c0-2.797,0.51-5.277,1.532-7.446c1.021-2.168,2.446-3.853,4.274-5.054
		c1.828-1.2,3.906-1.802,6.236-1.802c1.972,0,3.729,0.423,5.269,1.264c1.542,0.842,2.725,2.017,3.549,3.521v-4.086H93.586z
		 M85.146,32.419c1.218-1.541,1.828-3.71,1.828-6.506c0-2.866-0.609-5.07-1.828-6.613c-1.219-1.54-2.958-2.311-5.215-2.311
		c-2.222,0-3.951,0.798-5.188,2.393c-1.236,1.594-1.854,3.808-1.854,6.64c0,2.795,0.618,4.945,1.854,6.451
		c1.237,1.505,2.984,2.258,5.242,2.258C82.206,34.731,83.927,33.961,85.146,32.419"/>
	<rect x="100.897" y="0" fill="#EE2D46" width="6.666" height="39.569"/>
	<polygon fill="#EE2D46" points="141.864,39.57 133.477,39.57 121.596,27.043 121.596,39.57 114.928,39.57 114.928,0 121.596,0 
		121.596,24.409 132.778,12.473 140.895,12.473 128.692,25.43 	"/>
	<rect x="143.002" y="36.179" fill="#EE2D46" width="3.391" height="3.391"/>
	<path fill="#F68525" d="M148.829,15.996h3.26v3.029h-3.26V15.996z M149.092,23.008h2.668V39.57h-2.668V23.008z"/>
	<path fill="#F68525" d="M157.686,38.747c-1.186-0.702-2.102-1.701-2.75-2.996c-0.646-1.295-0.971-2.809-0.971-4.543
		c0-1.733,0.324-3.249,0.971-4.544c0.648-1.295,1.564-2.294,2.75-2.997c1.186-0.701,2.557-1.053,4.115-1.053
		c1.557,0,2.93,0.352,4.115,1.053c1.186,0.703,2.102,1.702,2.75,2.997c0.646,1.295,0.971,2.811,0.971,4.544
		c0,1.734-0.324,3.248-0.971,4.543c-0.648,1.295-1.564,2.294-2.75,2.996s-2.559,1.055-4.115,1.055
		C160.243,39.801,158.872,39.449,157.686,38.747 M165.586,35.964c0.879-1.087,1.318-2.673,1.318-4.757
		c0-2.02-0.451-3.583-1.35-4.693c-0.9-1.107-2.152-1.662-3.754-1.662c-1.625,0-2.887,0.555-3.787,1.662
		c-0.9,1.11-1.35,2.674-1.35,4.693c0,2.084,0.445,3.67,1.334,4.757s2.156,1.629,3.803,1.629S164.709,37.051,165.586,35.964"/>
</g>
</svg>
